<svg width="97" height="34" xmlns="http://www.w3.org/2000/svg"><defs><filter id="a"><feColorMatrix in="SourceGraphic" values="0 0 0 0 1.000000 0 0 0 0 1.000000 0 0 0 0 1.000000 0 0 0 1.000000 0"/></filter></defs><g transform="translate(-38 -51)" filter="url(#a)" fill="none" fill-rule="evenodd"><path d="M54.5 53c-8.182.273-14.634 7.056-14.498 15.242.137 8.185 6.811 14.75 14.998 14.75s14.861-6.565 14.998-14.75C70.134 60.056 63.682 53.272 55.5 53h-1zm21 0c-8.182.273-14.634 7.056-14.498 15.242.137 8.185 6.811 14.75 14.998 14.75s14.861-6.565 14.998-14.75C91.134 60.056 84.682 53.272 76.5 53h-1zm21 0c-8.182.273-14.634 7.056-14.498 15.242.137 8.185 6.811 14.75 14.998 14.75s14.861-6.565 14.998-14.75c.136-8.186-6.316-14.97-14.498-15.242h-1zm21 0c-8.182.273-14.634 7.056-14.498 15.242.137 8.185 6.811 14.75 14.998 14.75s14.861-6.565 14.998-14.75c.136-8.186-6.316-14.97-14.498-15.242h-1z" stroke="#000" stroke-width="3"/></g></svg>